<svg width="280" height="280" viewBox="0 0 280 280" fill="none" xmlns="http://www.w3.org/2000/svg">
<circle cx="140" cy="140" r="140" fill="#369C2A"/>
<mask id="mask0_1164_25" style="mask-type:alpha" maskUnits="userSpaceOnUse" x="66" y="63" width="157" height="157">
<rect x="66" y="63" width="157" height="157" fill="#D9D9D9"/>
</mask>
<g mask="url(#mask0_1164_25)">
<path d="M105.25 154.583H157.583V141.5H105.25V154.583ZM105.25 134.958H183.75V121.875H105.25V134.958ZM105.25 115.333H183.75V102.25H105.25V115.333ZM79.0833 206.916V89.1663C79.0833 85.5684 80.3643 82.4884 82.9265 79.9262C85.4886 77.3641 88.5687 76.083 92.1666 76.083H196.833C200.431 76.083 203.511 77.3641 206.073 79.9262C208.636 82.4884 209.917 85.5684 209.917 89.1663V167.666C209.917 171.264 208.636 174.344 206.073 176.906C203.511 179.469 200.431 180.75 196.833 180.75H105.25L79.0833 206.916ZM99.6895 167.666H196.833V89.1663H92.1666V175.026L99.6895 167.666Z" fill="white"/>
</g>
</svg>
